SplineFontDB: 3.2
FontName: SayhoneGroteskMedium
FullName: Sayhone Grotesk Medium
FamilyName: Sayhone Grotesk
Weight: Medium
Copyright: Copyright (c) 2022, marco
UComments: "2022-9-15: Created with FontForge (http://fontforge.org)"
Version: 001.000
ItalicAngle: 0
UnderlinePosition: -100
UnderlineWidth: 50
Ascent: 800
Descent: 200
InvalidEm: 0
LayerCount: 2
Layer: 0 0 "Back" 1
Layer: 1 0 "Fore" 0
XUID: [1021 501 -1863293109 8931]
StyleMap: 0x0000
FSType: 0
OS2Version: 0
OS2_WeightWidthSlopeOnly: 0
OS2_UseTypoMetrics: 1
CreationTime: 1663283346
ModificationTime: 1663931597
OS2TypoAscent: 0
OS2TypoAOffset: 1
OS2TypoDescent: 0
OS2TypoDOffset: 1
OS2TypoLinegap: 90
OS2WinAscent: 0
OS2WinAOffset: 1
OS2WinDescent: 0
OS2WinDOffset: 1
HheadAscent: 0
HheadAOffset: 1
HheadDescent: 0
HheadDOffset: 1
MarkAttachClasses: 1
DEI: 91125
Encoding: UnicodeBmp
UnicodeInterp: none
NameList: AGL For New Fonts
DisplaySize: -48
AntiAlias: 1
FitToEm: 0
WinInfo: 0 27 9
BeginPrivate: 0
EndPrivate
BeginChars: 65537 96

StartChar: zero
Encoding: 48 48 1
Width: 602
Flags: HW
LayerCount: 2
Fore
SplineSet
148.799804688 337.549804688 m 0
 148.799804688 203.150390625 188.299804688 103.950195312 301 103.950195312 c 4
 413.700195312 103.950195312 453.200195312 203.150390625 453.200195312 337.549804688 c 0
 453.200195312 471.950195312 413.700195312 569.049804688 301 569.049804688 c 4
 188.299804688 569.049804688 148.799804688 471.950195312 148.799804688 337.549804688 c 0
25 338 m 0
 25 530 115 683 301 683 c 4
 487 683 577 530 577 338 c 0
 577 146 487 -10 301 -10 c 4
 115 -10 25 146 25 338 c 0
EndSplineSet
Validated: 524289
EndChar

StartChar: one
Encoding: 49 49 2
Width: 312
Flags: HW
LayerCount: 2
Fore
SplineSet
159 499 m 5
 122.284179688 454.157226562 72.302734375 431.315429688 25 418 c 5
 25 537 l 1
 142 589 204 673 204 673 c 1
 282 673 l 1
 282 0 l 1
 159 0 l 1
 159 499 l 5
EndSplineSet
Validated: 524289
EndChar

StartChar: two
Encoding: 50 50 3
Width: 585
Flags: HW
LayerCount: 2
Fore
SplineSet
33.216796875 402 m 1
 12.216796875 546 94.216796875 683 274.216796875 683 c 0
 414.216796875 683 530.216796875 608 530.216796875 450 c 0
 530.216796875 332 477.669921875 260.766601562 390.216796875 192 c 0
 305.903320312 125.702148438 261.216796875 112 261.216796875 112 c 1
 534.216796875 122 l 1
 534.216796875 0 l 1
 34.216796875 0 l 1
 34.216796875 98 l 1
 34.216796875 98 155.216796875 158 264.216796875 233 c 4
 368.55859375 304.794921875 401.216796875 373 401.216796875 439 c 0
 401.216796875 495 380.216796875 570 276.216796875 570 c 0
 144.216796875 570 139.216796875 454 146.216796875 384 c 1
 33.216796875 402 l 1
EndSplineSet
Validated: 524321
EndChar

StartChar: three
Encoding: 51 51 4
Width: 552
Flags: HW
LayerCount: 2
Fore
SplineSet
31 457 m 9
 31 457 99 440 143 429 c 25
 143 429 146 567 279 567 c 0
 352 567 394 528 394 472 c 0
 394 416 350 385 292 385 c 0
 213 385 l 25
 213 293 l 25
 285 293 l 0
 332 293 403 278 403 190 c 0
 403 132 361 91 278 91 c 0
 203 91 150 118 132 240 c 0
 15 228 l 1
 35 76 121 -10 279 -10 c 0
 425 -10 527 63 527 190 c 0
 527 317 419 341 419 341 c 25
 419 341 519 379 519 485 c 0
 519 621 385 680 295 680 c 0
 205 680 62 636 31 457 c 9
EndSplineSet
Validated: 9
EndChar

StartChar: four
Encoding: 52 52 5
Width: 610
Flags: HW
LayerCount: 2
Fore
SplineSet
30 270 m 1
 580 270 l 1
 580 159 l 1
 30 159 l 1
 30 270 l 1
354 539 m 5
 146 248 l 1
 30 270 l 1
 329 673 l 5
 477 673 l 5
 477 0 l 5
 354 0 l 5
 354 539 l 5
EndSplineSet
Validated: 5
EndChar

StartChar: five
Encoding: 53 53 6
Width: 574
Flags: HW
LayerCount: 2
Fore
SplineSet
297 357 m 0
 232 357 184 330 152 282 c 1
 52 311 l 1
 103.48046875 673 l 1
 524.48046875 673 l 1
 513.48046875 559.049804688 l 1
 202.48046875 559.049804688 l 1
 180 406 l 1
 180 406 243.952579914 448 315 448 c 0
 469 448 549.48046875 342.950195312 549.48046875 230.950195312 c 0
 549.48046875 98.9501953125 464.48046875 -10 283.48046875 -10 c 0
 160.474609375 -10 72.6904296875 50.453125 25 167.890625 c 1
 136.727539062 217.680664062 l 1
 165.143554688 136.452148438 212.225585938 93.9501953125 283.48046875 93.9501953125 c 0
 381.180664062 93.9501953125 427 149.599609375 427 234 c 0
 427 288.399414062 394 357 297 357 c 0
EndSplineSet
Validated: 524289
EndChar

StartChar: six
Encoding: 54 54 7
Width: 575
Flags: HW
LayerCount: 2
Fore
SplineSet
138 246 m 1
 112 321 l 1
 160 411 220 434 335 434 c 0
 447.825195312 434 550.248046875 357 550.248046875 224.142578125 c 0
 550.248046875 96 458.998046875 -10 301 -10 c 0
 115 -10 25 146 25 338 c 0
 25 530 125 683 311 683 c 0
 417.989257812 683 490 640 543.250976562 572.0234375 c 1
 452.33203125 495.537109375 l 1
 415 536 382.04296875 569.049804688 311 569.049804688 c 0
 198.299804688 569.049804688 148.799804688 471.950195312 148.799804688 337.549804688 c 0
 148.799804688 203.150390625 188.299804688 103.950195312 301 103.950195312 c 0
 380.483398438 103.950195312 429.248046875 152 429.248046875 224.142578125 c 4
 429.248046875 296 389.264648438 337 313 337 c 0
 240 337 186 314 138 246 c 1
EndSplineSet
Validated: 524293
EndChar

StartChar: seven
Encoding: 55 55 8
Width: 563
Flags: HW
LayerCount: 2
Fore
SplineSet
390 554 m 1
 45 551 l 5
 55 673 l 5
 533 673 l 1
 532 582 l 1
 396 428 313 254 313 0 c 1
 180 0 l 1
 180 232 271 434 390 554 c 1
EndSplineSet
Validated: 1
EndChar

StartChar: eight
Encoding: 56 56 9
Width: 582
Flags: HW
LayerCount: 2
Fore
SplineSet
148.799804688 197.549804688 m 0
 148.799804688 153.150390625 178.299804688 103.950195312 291 103.950195312 c 0
 403.700195312 103.950195312 433.200195312 153.150390625 433.200195312 197.549804688 c 0
 433.200195312 241.950195312 403.700195312 289.049804688 291 289.049804688 c 0
 178.299804688 289.049804688 148.799804688 241.950195312 148.799804688 197.549804688 c 0
25 188 m 0
 25 290 105 373 291 373 c 0
 477 373 557 290 557 188 c 0
 557 86 477 -10 291 -10 c 0
 105 -10 25 86 25 188 c 0
168.799804688 482.549804688 m 0
 168.799804688 448.150390625 188.299804688 403.950195312 291 403.950195312 c 0
 393.700195312 403.950195312 413.200195312 448.150390625 413.200195312 482.549804688 c 0
 413.200195312 516.950195312 393.700195312 569.049804688 291 569.049804688 c 0
 188.299804688 569.049804688 168.799804688 516.950195312 168.799804688 482.549804688 c 0
45 493 m 4
 45 585 115 683 291 683 c 0
 467 683 537 585 537 493 c 4
 537 401 467 320 291 320 c 0
 115 320 45 401 45 493 c 4
EndSplineSet
Validated: 524293
EndChar

StartChar: nine
Encoding: 57 57 10
Width: 575
Flags: HW
LayerCount: 2
Fore
SplineSet
437.248046875 407 m 1
 463.248046875 332 l 1
 427 287 355.248046875 239 240.248046875 239 c 0
 127.422851562 239 25 316 25 448.857421875 c 0
 25 577 116.25 683 274.248046875 683 c 0
 460.248046875 683 550.248046875 527 550.248046875 335 c 0
 550.248046875 143 450.248046875 -10 264.248046875 -10 c 0
 157.258789062 -10 95.248046875 33 41.9970703125 100.9765625 c 1
 122.916015625 177.462890625 l 1
 160.248046875 137 193.205078125 103.950195312 264.248046875 103.950195312 c 0
 376.948242188 103.950195312 426.448242188 201.049804688 426.448242188 335.450195312 c 0
 426.448242188 469.849609375 386.948242188 569.049804688 274.248046875 569.049804688 c 0
 194.764648438 569.049804688 146 521 146 448.857421875 c 0
 146 377 185.983398438 336 262.248046875 336 c 0
 335.248046875 336 386 362 437.248046875 407 c 1
EndSplineSet
Validated: 524293
EndChar

StartChar: A
Encoding: 65 65 11
Width: 599
Flags: HW
LayerCount: 2
Fore
SplineSet
174.0546875 266.950195312 m 9
 452.245117188 271.165039062 l 25
 476.129882812 165.790039062 l 25
 144.549804688 165.790039062 l 25
 174.0546875 266.950195312 l 9
244.3046875 673 m 13
 351.084960938 672.995117188 l 5
 609.60546875 0 l 29
 475.96484375 0 l 4
 294.884765625 504.23046875 l 5
 118.01953125 0 l 4
 -10 0 l 4
 244.3046875 673 l 13
EndSplineSet
Validated: 524293
EndChar

StartChar: B
Encoding: 66 66 12
Width: 603
Flags: HW
LayerCount: 2
Fore
SplineSet
30 673 m 1
 326 673 l 2
 492 673 562 593 562 489 c 0
 562 365 448 341 448 341 c 1
 448 341 578 321 578 191 c 0
 578 41 474 0 352 0 c 2
 30 0 l 1
 30 673 l 1
159 559 m 1
 159 393 l 5
 288 393 l 2
 385 393 433 404 433 477 c 0
 433 550 384 559 291 559 c 2
 159 559 l 1
159 279 m 1
 159 111 l 1
 314 113 l 2
 411 113 449 124 449 197 c 0
 449 270 410 279 317 279 c 2
 159 279 l 1
EndSplineSet
Validated: 1
EndChar

StartChar: C
Encoding: 67 67 13
Width: 694
Flags: HW
LayerCount: 2
Fore
SplineSet
25 338 m 4
 25 530 150 683 361 683 c 4
 514.005859375 683 621.790039062 602.546875 669.48046875 485.109375 c 5
 557.752929688 435.319335938 l 5
 529.336914062 516.547851562 462.254882812 569.049804688 361 569.049804688 c 4
 223.299804688 569.049804688 148.799804688 471.950195312 148.799804688 337.549804688 c 4
 148.799804688 203.150390625 223.299804688 103.950195312 361 103.950195312 c 4
 471.078125 103.950195312 540.767578125 167.34375 564.297851562 261.434570312 c 5
 679.134765625 217.366210938 l 5
 637.6015625 84.7109375 525.407226562 -10 361 -10 c 4
 150 -10 25 146 25 338 c 4
EndSplineSet
Validated: 524289
EndChar

StartChar: D
Encoding: 68 68 14
Width: 653
Flags: HW
LayerCount: 2
Fore
SplineSet
159 113 m 1
 324 113 l 2
 411 113 499 164 499 337 c 0
 499 510 414 559 301 559 c 2
 159 559 l 1
 159 113 l 1
628 340 m 0
 628 150 524 0 322 0 c 2
 30 0 l 5
 30 673 l 1
 316 673 l 2
 562 673 628 484 628 340 c 0
EndSplineSet
Validated: 1
EndChar

StartChar: E
Encoding: 69 69 15
Width: 569
Flags: HW
LayerCount: 2
Fore
SplineSet
30 673 m 1
 539 673 l 1
 539 559 l 1
 159 559 l 1
 159 391 l 1
 439 392.90625 l 1
 439 279 l 1
 159 279 l 1
 159 113 l 5
 539 112.841796875 l 1
 539 0 l 1
 30 0 l 0
 30 673 l 1
EndSplineSet
Validated: 524289
EndChar

StartChar: F
Encoding: 70 70 16
Width: 569
Flags: HW
LayerCount: 2
Fore
SplineSet
30 673 m 1
 539 673 l 1
 539 559 l 1
 159 559 l 1
 159 351 l 1
 439 352.90625 l 1
 439 239 l 1
 159 239 l 1
 159 0 l 1
 30 0 l 4
 30 673 l 1
EndSplineSet
Validated: 524289
EndChar

StartChar: G
Encoding: 71 71 17
Width: 706
Flags: HW
LayerCount: 2
Fore
SplineSet
676 230 m 1
 676 0 l 1
 573 0 l 1
 563 230 l 1
 676 230 l 1
389 230 m 1
 389 329 l 1
 676 329 l 1
 676 230 l 1
 389 230 l 1
25 338 m 0
 25 530 150 683 361 683 c 0
 514.005859375 683 621.790039062 602.546875 669.48046875 485.109375 c 1
 557.752929688 435.319335938 l 1
 529.336914062 516.547851562 462.254882812 569.049804688 361 569.049804688 c 0
 223.299804688 569.049804688 148.799804688 471.950195312 148.799804688 337.549804688 c 0
 148.799804688 203.150390625 203.299804688 103.950195312 341 103.950195312 c 0
 437.078125 103.950195312 520.767578125 167.34375 544.297851562 261.434570312 c 1
 619.134765625 247.366210938 l 1
 578 74 485.407226562 -10 321 -10 c 0
 130 -10 25 146 25 338 c 0
EndSplineSet
Validated: 524293
EndChar

StartChar: H
Encoding: 72 72 18
Width: 617
Flags: HW
LayerCount: 2
Fore
SplineSet
587 673 m 5
 587 0 l 5
 464 0 l 4
 464 673 l 5
 587 673 l 5
153 673 m 5
 153 0 l 5
 30 0 l 4
 30 673 l 5
 153 673 l 5
113.809570312 383.78515625 m 13
 492 388 l 29
 515.884765625 282.625 l 29
 84.3046875 282.625 l 29
 113.809570312 383.78515625 l 13
EndSplineSet
Validated: 524293
EndChar

StartChar: I
Encoding: 73 73 19
Width: 183
Flags: HW
LayerCount: 2
Fore
SplineSet
153 673 m 5
 153 0 l 5
 30 0 l 4
 30 673 l 5
 153 673 l 5
EndSplineSet
Validated: 1
EndChar

StartChar: J
Encoding: 74 74 20
Width: 429
Flags: HW
LayerCount: 2
Fore
SplineSet
399 250 m 2
 399 673 l 5
 276 673 l 1
 276 200 l 2
 276 135 275 102 214 102 c 0
 153.8671875 102 150 149 150 208 c 2
 150 288 l 1
 30 288 l 1
 30 200 l 2
 30 153 46 -9 217 -9 c 0
 411 -9 399 128 399 250 c 2
EndSplineSet
Validated: 524329
EndChar

StartChar: K
Encoding: 75 75 21
Width: 600
Flags: HW
LayerCount: 2
Fore
SplineSet
350 417 m 5
 610 0 l 5
 467 0 l 4
 254 356 l 5
 350 417 l 5
124 246 m 9
 454 673 l 9
 608 673 l 9
 120 90 l 9
 124 246 l 9
153 673 m 1
 153 0 l 1
 30 0 l 0
 30 673 l 1
 153 673 l 1
EndSplineSet
Validated: 5
EndChar

StartChar: L
Encoding: 76 76 22
Width: 509
Flags: HW
LayerCount: 2
Fore
SplineSet
30 673 m 1
 159 673 l 1
 159 111 l 1
 479 112.841796875 l 1
 479 0 l 1
 30 0 l 5
 30 673 l 1
EndSplineSet
Validated: 524289
EndChar

StartChar: M
Encoding: 77 77 23
Width: 733
Flags: HW
LayerCount: 2
Fore
SplineSet
703 673 m 1
 703 0 l 1
 580 0 l 0
 580 673 l 1
 703 673 l 1
153 673 m 1
 153 0 l 1
 30 0 l 0
 30 673 l 1
 153 673 l 1
425.5 0 m 5
 307.5 0 l 5
 64 619 l 1
 153 673 l 1
 366.5 169 l 5
 580 673 l 1
 669 619 l 1
 425.5 0 l 5
EndSplineSet
Validated: 524293
EndChar

StartChar: N
Encoding: 78 78 24
Width: 617
Flags: HW
LayerCount: 2
Fore
SplineSet
587 673 m 1
 587 0 l 1
 464 0 l 0
 464 673 l 1
 587 673 l 1
153 673 m 1
 153 0 l 1
 30 0 l 0
 30 673 l 1
 153 673 l 1
153 673 m 1
 506 141 l 1
 464 0 l 1
 118 513 l 5
 153 673 l 1
EndSplineSet
Validated: 5
EndChar

StartChar: O
Encoding: 79 79 25
Width: 722
Flags: HW
LayerCount: 2
Fore
SplineSet
148.799804688 337.549804688 m 4
 148.799804688 203.150390625 223.299804688 103.950195312 361 103.950195312 c 4
 498.700195312 103.950195312 573.200195312 203.150390625 573.200195312 337.549804688 c 4
 573.200195312 471.950195312 498.700195312 569.049804688 361 569.049804688 c 4
 223.299804688 569.049804688 148.799804688 471.950195312 148.799804688 337.549804688 c 4
25 338 m 4
 25 530 150 683 361 683 c 4
 572 683 697 530 697 338 c 4
 697 146 572 -10 361 -10 c 4
 150 -10 25 146 25 338 c 4
EndSplineSet
Validated: 524289
EndChar

StartChar: P
Encoding: 80 80 26
Width: 607
Flags: HW
LayerCount: 2
Fore
SplineSet
159 559 m 1
 159 353 l 5
 308 353 l 2
 405 353 453 364 453 457 c 0
 453 550 404 559 311 559 c 2
 159 559 l 1
159 0 m 1
 30 0 l 1
 30 673 l 1
 346 673 l 2
 512 673 582 593 582 459 c 0
 582 324 483 239 337 239 c 2
 159 239 l 1
 159 0 l 1
EndSplineSet
Validated: 1
EndChar

StartChar: Q
Encoding: 81 81 27
Width: 722
Flags: HW
LayerCount: 2
Fore
SplineSet
180 99 m 25
 180 99 216 255 321 255 c 0
 426 255 457 155 477 56 c 0
 489.48828125 -5.814453125 524 -20 546 -20 c 0
 588 -20 628 22 628 22 c 25
 685 -46 l 25
 685 -46 640 -117 553 -117 c 8
 466 -117 398.581054688 -64.30078125 374 50 c 0
 354 143 330 160 308 160 c 8
 286 160 273 148 246 93 c 0
 246 93 198 97 180 99 c 25
148.799804688 337.549804688 m 0
 148.799804688 203.150390625 223.299804688 103.950195312 361 103.950195312 c 0
 498.700195312 103.950195312 573.200195312 203.150390625 573.200195312 337.549804688 c 0
 573.200195312 471.950195312 498.700195312 569.049804688 361 569.049804688 c 0
 223.299804688 569.049804688 148.799804688 471.950195312 148.799804688 337.549804688 c 0
25 338 m 0
 25 530 150 683 361 683 c 0
 572 683 697 530 697 338 c 0
 697 146 572 -10 361 -10 c 0
 150 -10 25 146 25 338 c 0
EndSplineSet
Validated: 524293
EndChar

StartChar: R
Encoding: 82 82 28
Width: 619
Flags: HW
LayerCount: 2
Fore
SplineSet
384 337 m 1
 584 0 l 1
 441 0 l 0
 288 276 l 1
 384 337 l 1
159 559 m 1
 159 373 l 5
 308 373 l 2
 405 373 453 384 453 467 c 0
 453 550 404 559 311 559 c 2
 159 559 l 1
159 0 m 1
 30 0 l 1
 30 673 l 1
 346 673 l 2
 512 673 582 593 582 469 c 0
 582 344 483 259 337 259 c 2
 159 259 l 1
 159 0 l 1
EndSplineSet
Validated: 5
EndChar

StartChar: S
Encoding: 83 83 29
Width: 604
Flags: HW
LayerCount: 2
Fore
SplineSet
293.48046875 285 m 0
 155.690429688 311.1328125 47.48046875 356 47.48046875 488 c 0
 47.48046875 590 122.48046875 683 293.48046875 683 c 0
 426.486328125 683 510.280273438 628.905273438 558.140625 531.551757812 c 1
 446.5 481.56640625 l 1
 417.977539062 542.745117188 374.735351562 569.049804688 293.48046875 569.049804688 c 0
 195.780273438 569.049804688 171.280273438 536.950195312 171.280273438 492.549804688 c 0
 171.280273438 448.150390625 223.41796875 420.739257812 293.48046875 408.950195312 c 0
 471.48046875 379 579.48046875 332.950195312 579.48046875 190.950195312 c 0
 579.48046875 88.9501953125 504.48046875 -10 313.48046875 -10 c 0
 160.474609375 -10 72.6904296875 50.453125 25 167.890625 c 1
 136.727539062 217.680664062 l 1
 165.143554688 136.452148438 212.225585938 103.950195312 313.48046875 103.950195312 c 0
 431.180664062 103.950195312 455.680664062 142 455.680664062 186.400390625 c 0
 455.680664062 240.799804688 409.48046875 263 293.48046875 285 c 0
EndSplineSet
Validated: 524289
EndChar

StartChar: T
Encoding: 84 84 30
Width: 569
Flags: HW
LayerCount: 2
Fore
SplineSet
346 643 m 1
 346 0 l 1
 223 0 l 0
 223 643 l 1
 346 643 l 1
30 559 m 5
 30 673 l 5
 539 673 l 5
 539 559 l 5
 30 559 l 5
EndSplineSet
Validated: 5
EndChar

StartChar: U
Encoding: 85 85 31
Width: 631
Flags: HW
LayerCount: 2
Fore
SplineSet
601 298 m 6
 601 106 531 -10 320 -10 c 0
 109 -10 30 106 30 298 c 6
 30 673 l 1
 153 673 l 1
 153 298 l 6
 153 163.600585938 182.299804688 103.950195312 320 103.950195312 c 0
 457.700195312 103.950195312 478 163.600585938 478 298 c 6
 478 673 l 1
 601 673 l 1
 601 298 l 6
EndSplineSet
Validated: 524289
EndChar

StartChar: V
Encoding: 86 86 32
Width: 599
Flags: HW
LayerCount: 2
Fore
SplineSet
355.30078125 0 m 13
 248.520507812 0.0048828125 l 5
 -10 673 l 29
 123.640625 673 l 4
 304.720703125 168.76953125 l 5
 481.5859375 673 l 4
 609.60546875 673 l 4
 355.30078125 0 l 13
EndSplineSet
Validated: 524289
EndChar

StartChar: W
Encoding: 87 87 33
Width: 851
Flags: HW
LayerCount: 2
Fore
SplineSet
676.88671875 0 m 9
 550.106445312 0.0048828125 l 1
 361.5859375 673 l 25
 495.2265625 673 l 0
 616.306640625 168.76953125 l 1
 733.171875 673 l 0
 861.19140625 673 l 0
 676.88671875 0 l 9
305.30078125 0 m 9
 178.520507812 0.0048828125 l 1
 -10 673 l 25
 123.640625 673 l 0
 244.720703125 168.76953125 l 1
 361.5859375 673 l 0
 489.60546875 673 l 0
 305.30078125 0 l 9
EndSplineSet
Validated: 524293
EndChar

StartChar: X
Encoding: 88 88 34
Width: 605
Flags: HW
LayerCount: 2
Fore
SplineSet
-10 0 m 5
 451.66015625 673 l 5
 595.30078125 673 l 5
 136.780273438 0.0048828125 l 5
 -10 0 l 5
615.30078125 0 m 1
 468.520507812 0.0048828125 l 1
 10 673 l 1
 153.640625 673 l 1
 615.30078125 0 l 1
EndSplineSet
Validated: 524293
EndChar

StartChar: Y
Encoding: 89 89 35
Width: 572
Flags: HW
LayerCount: 2
Fore
SplineSet
347.825195312 263 m 5
 347.825195312 0 l 5
 224.825195312 0 l 4
 224.825195312 263 l 5
 347.825195312 263 l 5
342.573242188 219.98046875 m 5
 240 255.776367188 l 5
 449.009765625 673 l 1
 582.650390625 673 l 1
 342.573242188 219.98046875 l 5
230.077148438 219.98046875 m 5
 -10 673 l 1
 133.640625 673 l 1
 332.650390625 255.776367188 l 5
 230.077148438 219.98046875 l 5
EndSplineSet
Validated: 524293
EndChar

StartChar: Z
Encoding: 90 90 36
Width: 569
Flags: HW
LayerCount: 2
Fore
SplineSet
30 0 m 1
 30 114 l 1
 539 114 l 1
 539 0 l 1
 30 0 l 1
539 559 m 1
 173 114 l 1
 30 114 l 0
 396 559 l 5
 539 559 l 1
30 559 m 1
 30 673 l 1
 539 673 l 1
 539 559 l 1
 30 559 l 1
EndSplineSet
EndChar

StartChar: numbersign
Encoding: 35 35 37
Width: 653
Flags: HW
LayerCount: 2
Fore
SplineSet
13.8095703125 273.78515625 m 9
 575 278 l 25
 575.884765625 162.625 l 25
 14.3046875 162.625 l 25
 13.8095703125 273.78515625 l 9
587 673 m 1
 397 0 l 1
 284 0 l 0
 474 673 l 1
 587 673 l 1
363 673 m 5
 163 0 l 5
 50 0 l 4
 250 673 l 5
 363 673 l 5
63.8095703125 533.78515625 m 9
 625 538 l 25
 625.884765625 422.625 l 25
 64.3046875 422.625 l 25
 63.8095703125 533.78515625 l 9
EndSplineSet
Validated: 5
EndChar

StartChar: dollar
Encoding: 36 36 38
Width: 564
Flags: HW
LayerCount: 2
Fore
SplineSet
252 745 m 5
 314 745 l 5
 314 -85 l 5
 252 -85 l 5
 252 745 l 5
273.48046875 285 m 0
 135.690429688 311.1328125 47.48046875 356 47.48046875 488 c 0
 47.48046875 590 132.48046875 683 273.48046875 683 c 0
 386.486328125 683 470.280273438 628.905273438 518.140625 531.551757812 c 1
 406.5 481.56640625 l 1
 377.977539062 542.745117188 334.735351562 569.049804688 273.48046875 569.049804688 c 0
 205.780273438 569.049804688 171.280273438 531.950195312 171.280273438 487.549804688 c 0
 171.280273438 443.150390625 203.41796875 420.739257812 273.48046875 408.950195312 c 0
 451.48046875 379 539.48046875 312.950195312 539.48046875 190.950195312 c 0
 539.48046875 88.9501953125 454.48046875 -10 293.48046875 -10 c 0
 140.474609375 -10 72.6904296875 50.453125 25 167.890625 c 1
 136.727539062 217.680664062 l 1
 165.143554688 136.452148438 192.225585938 103.950195312 293.48046875 103.950195312 c 0
 381.180664062 103.950195312 415.680664062 147 415.680664062 191.400390625 c 0
 415.680664062 225.799804688 389.48046875 263 273.48046875 285 c 0
EndSplineSet
Validated: 524293
EndChar

StartChar: percent
Encoding: 37 37 39
Width: 783
Flags: HW
LayerCount: 2
Fore
SplineSet
526.1953125 158.180664062 m 0
 526.1953125 114.4296875 550.447265625 82.13671875 595.272460938 82.13671875 c 0
 640.09765625 82.13671875 664.350585938 114.4296875 664.350585938 158.180664062 c 0
 664.350585938 201.931640625 640.09765625 233.5390625 595.272460938 233.5390625 c 0
 550.447265625 233.5390625 526.1953125 201.931640625 526.1953125 158.180664062 c 0
433 158.388671875 m 4
 433 251.293945312 493.484375 325.326171875 595.58203125 325.326171875 c 4
 697.6796875 325.326171875 758.1640625 251.293945312 758.1640625 158.388671875 c 4
 758.1640625 65.4853515625 697.6796875 -10 595.58203125 -10 c 4
 493.484375 -10 433 65.4853515625 433 158.388671875 c 4
118.1953125 515.854492188 m 0
 118.1953125 472.103515625 142.447265625 439.810546875 187.272460938 439.810546875 c 0
 232.09765625 439.810546875 256.350585938 472.103515625 256.350585938 515.854492188 c 0
 256.350585938 559.60546875 232.09765625 591.212890625 187.272460938 591.212890625 c 0
 142.447265625 591.212890625 118.1953125 559.60546875 118.1953125 515.854492188 c 0
25 516.0625 m 0
 25 608.967773438 85.484375 683 187.58203125 683 c 0
 289.6796875 683 350.1640625 608.967773438 350.1640625 516.0625 c 0
 350.1640625 423.159179688 289.6796875 347.673828125 187.58203125 347.673828125 c 0
 85.484375 347.673828125 25 423.159179688 25 516.0625 c 0
639.58203125 673 m 1
 259.58203125 0 l 1
 136.58203125 0 l 0
 516.58203125 673 l 1
 639.58203125 673 l 1
EndSplineSet
Validated: 524289
EndChar

StartChar: comma
Encoding: 44 44 40
Width: 201
Flags: HW
LayerCount: 2
Fore
SplineSet
25 68.2998046875 m 0
 25 111.5 53.125 145.924804688 100.599609375 145.924804688 c 0
 148.07421875 145.924804688 176.19921875 111.5 176.19921875 68.2998046875 c 0
 176.19921875 16 159.794921875 -41.14453125 123.599609375 -76 c 0
 96.599609375 -102 68.599609375 -107 68.599609375 -107 c 5
 50.599609375 -53 l 1
 92.599609375 -43 98.599609375 -30.5361328125 98.599609375 -21 c 0
 98.599609375 -13 92.599609375 -10 82.599609375 -10 c 0
 53.125 -10 25 25.099609375 25 68.2998046875 c 0
EndSplineSet
Validated: 524289
EndChar

StartChar: period
Encoding: 46 46 41
Width: 201
Flags: HW
LayerCount: 2
Fore
SplineSet
25 68.2998046875 m 4
 25 111.5 53.125 145.924804688 100.599609375 145.924804688 c 4
 148.07421875 145.924804688 176.19921875 111.5 176.19921875 68.2998046875 c 4
 176.19921875 25.099609375 148.07421875 -10 100.599609375 -10 c 4
 53.125 -10 25 25.099609375 25 68.2998046875 c 4
EndSplineSet
Validated: 524289
EndChar

StartChar: colon
Encoding: 58 58 42
Width: 201
Flags: HW
LayerCount: 2
Fore
SplineSet
25 358.299804688 m 4
 25 401.5 53.125 435.924804688 100.599609375 435.924804688 c 4
 148.07421875 435.924804688 176.19921875 401.5 176.19921875 358.299804688 c 4
 176.19921875 315.099609375 148.07421875 280 100.599609375 280 c 4
 53.125 280 25 315.099609375 25 358.299804688 c 4
25 68.2998046875 m 0
 25 111.5 53.125 145.924804688 100.599609375 145.924804688 c 0
 148.07421875 145.924804688 176.19921875 111.5 176.19921875 68.2998046875 c 0
 176.19921875 25.099609375 148.07421875 -10 100.599609375 -10 c 4
 53.125 -10 25 25.099609375 25 68.2998046875 c 0
EndSplineSet
Validated: 524289
EndChar

StartChar: semicolon
Encoding: 59 59 43
Width: 201
Flags: HW
LayerCount: 2
Fore
SplineSet
25 358.299804688 m 4
 25 401.5 53.125 435.924804688 100.599609375 435.924804688 c 4
 148.07421875 435.924804688 176.19921875 401.5 176.19921875 358.299804688 c 4
 176.19921875 315.099609375 148.07421875 280 100.599609375 280 c 4
 53.125 280 25 315.099609375 25 358.299804688 c 4
25 68.2998046875 m 0
 25 111.5 53.125 145.924804688 100.599609375 145.924804688 c 0
 148.07421875 145.924804688 176.19921875 111.5 176.19921875 68.2998046875 c 0
 176.19921875 16 159.794921875 -41.14453125 123.599609375 -76 c 0
 96.599609375 -102 68.599609375 -107 68.599609375 -107 c 1
 50.599609375 -53 l 1
 92.599609375 -43 98.599609375 -30.5361328125 98.599609375 -21 c 0
 98.599609375 -13 92.599609375 -10 82.599609375 -10 c 0
 53.125 -10 25 25.099609375 25 68.2998046875 c 0
EndSplineSet
Validated: 524289
EndChar

StartChar: exclam
Encoding: 33 33 44
Width: 211
Flags: HW
LayerCount: 2
Fore
SplineSet
30 68.2998046875 m 0
 30 111.5 58.125 145.924804688 105.599609375 145.924804688 c 0
 153.07421875 145.924804688 181.19921875 111.5 181.19921875 68.2998046875 c 0
 181.19921875 25.099609375 153.07421875 -10 105.599609375 -10 c 0
 58.125 -10 30 25.099609375 30 68.2998046875 c 0
167.099609375 673 m 5
 157.099609375 220 l 5
 157.099609375 220 131.599609375 224 104.599609375 224 c 4
 77.599609375 224 54.099609375 220 54.099609375 220 c 4
 44.099609375 673 l 5
 167.099609375 673 l 5
EndSplineSet
Validated: 524289
EndChar

StartChar: question
Encoding: 63 63 45
Width: 510
Flags: HW
LayerCount: 2
Fore
SplineSet
155.060546875 68.2998046875 m 0
 155.060546875 111.5 183.185546875 145.924804688 230.66015625 145.924804688 c 0
 278.134765625 145.924804688 306.259765625 111.5 306.259765625 68.2998046875 c 0
 306.259765625 25.099609375 278.134765625 -10 230.66015625 -10 c 0
 183.185546875 -10 155.060546875 25.099609375 155.060546875 68.2998046875 c 0
286.481445312 221.400390625 m 0
 286.481445312 221.400390625 259.600585938 228.190429688 231.53125 226.190429688 c 0
 203.534179688 224.1953125 180.651367188 214.950195312 180.651367188 214.950195312 c 0
 159.66015625 332 192.66015625 389 259.66015625 408.950195312 c 0
 327.752929688 429.225585938 361.860351562 443.150390625 361.860351562 487.549804688 c 0
 361.860351562 531.950195312 327.360351562 569.049804688 259.66015625 569.049804688 c 0
 198.405273438 569.049804688 155.163085938 542.745117188 126.640625 481.56640625 c 1
 15 531.551757812 l 1
 62.8603515625 628.905273438 146.654296875 683 259.66015625 683 c 0
 400.66015625 683 485.66015625 590 485.66015625 488 c 0
 485.66015625 356 391.66015625 341 313.66015625 309 c 0
 279.642578125 295.043945312 275.66015625 291 286.481445312 221.400390625 c 0
EndSplineSet
Validated: 524321
EndChar

StartChar: ampersand
Encoding: 38 38 47
Width: 802
Flags: HW
LayerCount: 2
Fore
SplineSet
647.155273438 456.228515625 m 1
 647.155273438 366 588 208 522 131 c 0
 443.184570312 39.048828125 381.508789062 -10 273.48046875 -10 c 0
 157.139648438 -10 48.5166015625 49.0537109375 48.5166015625 167 c 0
 48.5166015625 246 131 340 266 386 c 1
 327 328 l 1
 214 266 171.821289062 228 171.821289062 186 c 0
 171.821289062 126.430664062 201.337890625 103.950195312 273.48046875 103.950195312 c 0
 343.184570312 103.950195312 370.884765625 128.245117188 419 179 c 0
 491.08984375 255.044921875 537.155273438 382 537.155273438 466.228515625 c 1
 647.155273438 456.228515625 l 1
604 -10 m 0
 543.740878942 -10 478.938263247 29.9787293784 421.000003849 80.6568179716 c 0
 320.717783763 168.37279851 241 288.142227582 241 288.142227582 c 1
 235.632389979 294.67590518 230.302099603 300.977862179 225 307 c 0
 144 399 107.946289062 443.520507812 107.946289062 517.373046875 c 0
 107.946289062 607.252929688 175.495117188 683 293.48046875 683 c 0
 404.94921875 683 478.581054688 616.258789062 478.581054688 518.989257812 c 0
 478.581054688 451.440429688 427 394 327 328 c 1
 266 386 l 1
 347 442 368.627929688 469.453125 368.627929688 511.784179688 c 0
 368.627929688 549.611328125 347.611328125 580.37109375 293.48046875 580.37109375 c 0
 241.512695312 580.37109375 219.447265625 548.963867188 219.447265625 508.974609375 c 0
 219.447265625 467.9921875 237 441 300 385 c 0
 312.19903707 374.156411493 324.741184693 361.259589134 337.502330744 347.000001988 c 1
 337.502330744 347.000001988 419.479958428 231.912019069 494.708125325 154.000001669 c 0
 533.201664394 114.133161767 567.927734375 84 599 84 c 0
 661.901367188 84 674 139 651 221 c 0
 749 231 l 1
 780 177 778 -10 604 -10 c 0
EndSplineSet
Validated: 524325
EndChar

StartChar: b
Encoding: 98 98 48
Width: 522
VWidth: 699
Flags: HW
LayerCount: 2
Fore
SplineSet
153 673 m 1
 153 0 l 1
 30 0 l 0
 30 673 l 1
 153 673 l 1
154.16015625 236.28515625 m 4
 154.16015625 142.205078125 203.309570312 92.7646484375 267.700195312 92.7646484375 c 4
 334.08984375 92.7646484375 376.240234375 142.205078125 376.240234375 236.28515625 c 4
 376.240234375 330.365234375 334.08984375 378.334960938 267.700195312 378.334960938 c 4
 203.309570312 378.334960938 154.16015625 330.365234375 154.16015625 236.28515625 c 4
87.5 236.599609375 m 4
 87.5 371 145 478.099609375 292.700195312 478.099609375 c 4
 430.400390625 478.099609375 497.900390625 371 497.900390625 236.599609375 c 4
 497.900390625 102.200195312 430.400390625 -7 292.700195312 -7 c 4
 145 -7 87.5 102.200195312 87.5 236.599609375 c 4
EndSplineSet
EndChar

StartChar: r
Encoding: 114 114 49
Width: 410
VWidth: 699
Flags: HW
LayerCount: 2
Fore
SplineSet
153 471.099609375 m 1
 153 0 l 1
 30 0 l 0
 30 471.099609375 l 1
 153 471.099609375 l 1
134.16015625 256.28515625 m 1
 67.5 256.599609375 l 1
 67.5 391 145 478.099609375 252.700195312 478.099609375 c 0
 312 478.099609375 380 447 395.80078125 337.57421875 c 1
 298.4921875 308.520507812 l 1
 278.122070312 362.083984375 264.08984375 378.334960938 227.700195312 378.334960938 c 0
 163.309570312 378.334960938 134.16015625 350.365234375 134.16015625 256.28515625 c 1
EndSplineSet
Validated: 524293
EndChar

StartChar: a
Encoding: 97 97 50
Width: 540
VWidth: 699
Flags: HW
LayerCount: 2
Fore
SplineSet
358.740234375 150.994140625 m 0
 358.740234375 191.877929688 309.590820312 198.342773438 245.200195312 198.342773438 c 0
 178.810546875 198.342773438 146.66015625 191.877929688 146.66015625 150.994140625 c 0
 146.66015625 110.108398438 178.810546875 96.3251953125 245.200195312 96.3251953125 c 0
 309.590820312 96.3251953125 358.740234375 123.728515625 358.740234375 150.994140625 c 0
425.400390625 153.86328125 m 0
 425.400390625 61.7626953125 367.900390625 -7 220.200195312 -7 c 0
 82.5 -7 25 69.8134765625 25 153.86328125 c 0
 25 237.913085938 82.5 304.984375 220.200195312 304.984375 c 0
 367.900390625 304.984375 425.400390625 237.913085938 425.400390625 153.86328125 c 0
443 241 m 2
 443 141 l 2
 443 109 455.89453125 97 479 97 c 0
 488.124023438 97 503 102 508 106 c 1
 525 11 l 1
 499.533203125 -1.640625 480.546875 -6.5302734375 450 -6.5302734375 c 0
 382.409179688 -6.5302734375 326 30 326 117 c 2
 326.80078125 248.061523438 l 2
 326.80078125 347 307.764648438 377 238 377 c 0
 197 377 158 360 134.330078125 315.112304688 c 1
 47 380 l 1
 47 380 90 481 236 481 c 0
 350 481 443 445 443 241 c 2
EndSplineSet
EndChar

StartChar: c
Encoding: 99 99 51
Width: 512
VWidth: 699
Flags: HW
LayerCount: 2
Fore
SplineSet
25 236.599609375 m 0
 25 371 112.5 478.099609375 260.200195312 478.099609375 c 0
 374.484375 478.099609375 452.7265625 413.979492188 482.280273438 322.705078125 c 1
 449.5234375 306.286132812 412.336914062 287.811523438 375.634765625 269.923828125 c 1
 364.614257812 327.186523438 324.55859375 368.334960938 260.200195312 368.334960938 c 0
 183.809570312 368.334960938 141.66015625 310.365234375 141.66015625 236.28515625 c 0
 141.66015625 162.205078125 183.809570312 102.764648438 260.200195312 102.764648438 c 0
 343.5 102.764648438 376.545898438 157.106445312 391.572265625 206.116210938 c 1
 423.19921875 191.776367188 460.375 174.904296875 497.932617188 157.8203125 c 1
 465.512695312 72.548828125 398.5 -7 260.200195312 -7 c 0
 112.5 -7 25 102.200195312 25 236.599609375 c 0
EndSplineSet
EndChar

StartChar: e
Encoding: 101 101 52
Width: 515
VWidth: 699
Flags: HW
LayerCount: 2
Fore
SplineSet
120.5 276 m 1
 424.5 296 l 1
 474.5 203 l 1
 120.5 183 l 1
 120.5 276 l 1
25 236.599609375 m 0
 25 371 112.5 478.099609375 260.200195312 478.099609375 c 0
 374.484375 478.099609375 492.5 409 474.5 203 c 1
 474.5 203 392.336914062 297.811523438 355.634765625 279.923828125 c 1
 345.5 339 324.55859375 368.334960938 260.200195312 368.334960938 c 0
 183.809570312 368.334960938 141.66015625 310.365234375 141.66015625 236.28515625 c 0
 141.66015625 162.205078125 183.809570312 102.764648438 260.200195312 102.764648438 c 0
 343.5 102.764648438 387.024414062 133.052734375 418.573242188 173.456054688 c 1
 442.986328125 148.760742188 471.677734375 119.716796875 500.650390625 90.33984375 c 1
 439.8984375 22.28515625 348.5 -7 260.200195312 -7 c 0
 112.5 -7 25 102.200195312 25 236.599609375 c 0
EndSplineSet
EndChar

StartChar: i
Encoding: 105 105 53
Width: 210
VWidth: 699
Flags: HW
LayerCount: 2
Fore
SplineSet
30 598.299804688 m 0
 30 641.5 58.125 675.924804688 105.599609375 675.924804688 c 0
 153.07421875 675.924804688 181.19921875 641.5 181.19921875 598.299804688 c 0
 181.19921875 555.099609375 153.07421875 520 105.599609375 520 c 0
 58.125 520 30 555.099609375 30 598.299804688 c 0
163.69921875 471.099609375 m 5
 163.69921875 0 l 5
 47.599609375 0 l 4
 47.599609375 471.099609375 l 5
 163.69921875 471.099609375 l 5
EndSplineSet
EndChar

StartChar: g
Encoding: 103 103 54
Width: 527
VWidth: 699
Flags: HW
LayerCount: 2
Fore
SplineSet
440.400390625 246.599609375 m 0
 440.400390625 122.200195312 382.900390625 23 235.200195312 23 c 0
 97.5 23 30 122.200195312 30 246.599609375 c 0
 30 371 97.5 478.099609375 235.200195312 478.099609375 c 0
 382.900390625 478.099609375 440.400390625 371 440.400390625 246.599609375 c 0
373.740234375 246.28515625 m 0
 373.740234375 330.365234375 324.590820312 378.334960938 260.200195312 378.334960938 c 0
 193.810546875 378.334960938 151.66015625 330.365234375 151.66015625 246.28515625 c 0
 151.66015625 162.205078125 193.810546875 122.764648438 260.200195312 122.764648438 c 0
 324.590820312 122.764648438 373.740234375 162.205078125 373.740234375 246.28515625 c 0
374.900390625 471.099609375 m 1
 497.900390625 471.099609375 l 1
 497.900390625 55 l 2
 497.900390625 -68 438 -182 257.900390625 -182 c 0
 170 -182 115 -166 50 -106 c 1
 122 -10 l 1
 161 -58 194 -72 245 -72 c 0
 318 -72 374.900390625 -49 374.900390625 66 c 2
 374.900390625 471.099609375 l 1
EndSplineSet
EndChar

StartChar: h
Encoding: 104 104 55
Width: 498
VWidth: 699
Flags: HW
LayerCount: 2
Fore
SplineSet
153 673 m 1
 153 0 l 1
 30 0 l 0
 30 673 l 1
 153 673 l 1
134.16015625 256.28515625 m 0
 67.5 256.599609375 l 0
 67.5 391 135 478.099609375 282.700195312 478.099609375 c 0
 420.400390625 478.099609375 467.900390625 371 467.900390625 236.599609375 c 0
 468 0 l 5
 347 0 l 21
 346.240234375 236.28515625 l 0
 346.240234375 330.365234375 324.08984375 378.334960938 257.700195312 378.334960938 c 0
 193.309570312 378.334960938 134.16015625 350.365234375 134.16015625 256.28515625 c 0
EndSplineSet
EndChar

StartChar: eight.ss01
Encoding: 65536 -1 56
Width: 602
Flags: HW
LayerCount: 2
Fore
SplineSet
273.48046875 305 m 4
 182 332 67.48046875 396 67.48046875 488 c 0
 67.48046875 610 162.48046875 683 293.48046875 683 c 0
 417.245117188 683 519 620 519 512 c 0
 519 437 480 391 347 328 c 1
 236 366 l 1
 364 423 396.916992188 457 396.916992188 504 c 0
 396.916992188 546 353.58203125 569.049804688 293.48046875 569.049804688 c 0
 235.780273438 569.049804688 191.280273438 541.950195312 191.280273438 497.549804688 c 0
 191.280273438 453.150390625 250.783203125 438.750976562 317 413 c 0
 479 350 557.48046875 312.950195312 557.48046875 190.950195312 c 0
 557.48046875 88.9501953125 454.48046875 -10 293.48046875 -10 c 0
 177.139648438 -10 48.5166015625 49.0537109375 48.5166015625 167 c 0
 48.5166015625 246 101 320 236 366 c 1
 347 328 l 1
 223 276 171.821289062 238 171.821289062 186 c 0
 171.821289062 126.430664062 221.337890625 103.950195312 293.48046875 103.950195312 c 0
 381.180664062 103.950195312 433.680664062 147 433.680664062 191.400390625 c 0
 433.680664062 245.799804688 386.71875 271.578125 273.48046875 305 c 4
EndSplineSet
Validated: 524293
EndChar

StartChar: perthousand
Encoding: 8240 8240 57
Width: 1003
Flags: HW
LayerCount: 2
Fore
SplineSet
756.1953125 158.180664062 m 0
 756.1953125 114.4296875 775.447265625 82.13671875 820.272460938 82.13671875 c 0
 865.09765625 82.13671875 884.350585938 114.4296875 884.350585938 158.180664062 c 0
 884.350585938 201.931640625 865.09765625 233.5390625 820.272460938 233.5390625 c 0
 775.447265625 233.5390625 756.1953125 201.931640625 756.1953125 158.180664062 c 0
673 158.388671875 m 0
 673 251.293945312 723.484375 325.326171875 825.58203125 325.326171875 c 0
 927.6796875 325.326171875 978.1640625 251.293945312 978.1640625 158.388671875 c 0
 978.1640625 65.4853515625 927.6796875 -10 825.58203125 -10 c 0
 723.484375 -10 673 65.4853515625 673 158.388671875 c 0
526.1953125 158.180664062 m 0
 526.1953125 114.4296875 545.447265625 82.13671875 590.272460938 82.13671875 c 0
 635.09765625 82.13671875 654.350585938 114.4296875 654.350585938 158.180664062 c 0
 654.350585938 201.931640625 635.09765625 233.5390625 590.272460938 233.5390625 c 0
 545.447265625 233.5390625 526.1953125 201.931640625 526.1953125 158.180664062 c 0
433 158.388671875 m 0
 433 251.293945312 483.484375 325.326171875 585.58203125 325.326171875 c 0
 687.6796875 325.326171875 738.1640625 251.293945312 738.1640625 158.388671875 c 0
 738.1640625 65.4853515625 687.6796875 -10 585.58203125 -10 c 0
 483.484375 -10 433 65.4853515625 433 158.388671875 c 0
118.1953125 515.854492188 m 0
 118.1953125 472.103515625 142.447265625 439.810546875 187.272460938 439.810546875 c 0
 232.09765625 439.810546875 256.350585938 472.103515625 256.350585938 515.854492188 c 0
 256.350585938 559.60546875 232.09765625 591.212890625 187.272460938 591.212890625 c 0
 142.447265625 591.212890625 118.1953125 559.60546875 118.1953125 515.854492188 c 0
25 516.0625 m 0
 25 608.967773438 85.484375 683 187.58203125 683 c 0
 289.6796875 683 350.1640625 608.967773438 350.1640625 516.0625 c 0
 350.1640625 423.159179688 289.6796875 347.673828125 187.58203125 347.673828125 c 0
 85.484375 347.673828125 25 423.159179688 25 516.0625 c 0
639.58203125 673 m 1
 259.58203125 0 l 1
 136.58203125 0 l 0
 516.58203125 673 l 1
 639.58203125 673 l 1
EndSplineSet
Validated: 524293
EndChar

StartChar: quoteright
Encoding: 8217 8217 58
Width: 201
Flags: HW
LayerCount: 2
Fore
SplineSet
25 605.299804688 m 0
 25 648.5 53.125 682.924804688 100.599609375 682.924804688 c 0
 148.07421875 682.924804688 176.19921875 648.5 176.19921875 605.299804688 c 0
 176.19921875 553 159.794921875 495.85546875 123.599609375 461 c 0
 96.599609375 435 68.599609375 430 68.599609375 430 c 1
 50.599609375 484 l 1
 92.599609375 494 98.599609375 506.463867188 98.599609375 516 c 0
 98.599609375 524 92.599609375 527 82.599609375 527 c 0
 53.125 527 25 562.099609375 25 605.299804688 c 0
EndSplineSet
Validated: 524289
EndChar

StartChar: quoteleft
Encoding: 8216 8216 59
Width: 201
Flags: HW
LayerCount: 2
Fore
SplineSet
176.19921875 507.625 m 0
 176.19921875 464.424804688 148.07421875 430 100.599609375 430 c 0
 53.125 430 25 464.424804688 25 507.625 c 0
 25 559.924804688 41.404296875 617.069335938 77.599609375 651.924804688 c 0
 104.599609375 677.924804688 132.599609375 682.924804688 132.599609375 682.924804688 c 1
 150.599609375 628.924804688 l 1
 108.599609375 618.924804688 102.599609375 606.4609375 102.599609375 596.924804688 c 0
 102.599609375 588.924804688 108.599609375 585.924804688 118.599609375 585.924804688 c 0
 148.07421875 585.924804688 176.19921875 550.825195312 176.19921875 507.625 c 0
EndSplineSet
Validated: 524289
EndChar

StartChar: quotedblleft
Encoding: 8220 8220 60
Width: 391
Flags: HW
LayerCount: 2
Fore
SplineSet
366.19921875 507.625 m 0
 366.19921875 464.424804688 338.07421875 430 290.599609375 430 c 0
 243.125 430 215 464.424804688 215 507.625 c 0
 215 559.924804688 231.404296875 617.069335938 267.599609375 651.924804688 c 0
 294.599609375 677.924804688 322.599609375 682.924804688 322.599609375 682.924804688 c 1
 340.599609375 628.924804688 l 1
 298.599609375 618.924804688 292.599609375 606.4609375 292.599609375 596.924804688 c 0
 292.599609375 588.924804688 298.599609375 585.924804688 308.599609375 585.924804688 c 0
 338.07421875 585.924804688 366.19921875 550.825195312 366.19921875 507.625 c 0
176.19921875 507.625 m 0
 176.19921875 464.424804688 148.07421875 430 100.599609375 430 c 0
 53.125 430 25 464.424804688 25 507.625 c 0
 25 559.924804688 41.404296875 617.069335938 77.599609375 651.924804688 c 0
 104.599609375 677.924804688 132.599609375 682.924804688 132.599609375 682.924804688 c 1
 150.599609375 628.924804688 l 1
 108.599609375 618.924804688 102.599609375 606.4609375 102.599609375 596.924804688 c 0
 102.599609375 588.924804688 108.599609375 585.924804688 118.599609375 585.924804688 c 0
 148.07421875 585.924804688 176.19921875 550.825195312 176.19921875 507.625 c 0
EndSplineSet
Validated: 524289
EndChar

StartChar: quotedblright
Encoding: 8221 8221 61
Width: 391
Flags: HW
LayerCount: 2
Fore
SplineSet
25 605.299804688 m 0
 25 648.5 53.125 682.924804688 100.599609375 682.924804688 c 0
 148.07421875 682.924804688 176.19921875 648.5 176.19921875 605.299804688 c 0
 176.19921875 553 159.794921875 495.85546875 123.599609375 461 c 0
 96.599609375 435 68.599609375 430 68.599609375 430 c 1
 50.599609375 484 l 1
 92.599609375 494 98.599609375 506.463867188 98.599609375 516 c 0
 98.599609375 524 92.599609375 527 82.599609375 527 c 0
 53.125 527 25 562.099609375 25 605.299804688 c 0
215 605.299804688 m 0
 215 648.5 243.125 682.924804688 290.599609375 682.924804688 c 0
 338.07421875 682.924804688 366.19921875 648.5 366.19921875 605.299804688 c 0
 366.19921875 553 349.794921875 495.85546875 313.599609375 461 c 0
 286.599609375 435 258.599609375 430 258.599609375 430 c 1
 240.599609375 484 l 1
 282.599609375 494 288.599609375 506.463867188 288.599609375 516 c 0
 288.599609375 524 282.599609375 527 272.599609375 527 c 0
 243.125 527 215 562.099609375 215 605.299804688 c 0
EndSplineSet
Validated: 524289
EndChar

StartChar: quotesinglbase
Encoding: 8218 8218 62
Width: 201
Flags: HW
LayerCount: 2
Fore
SplineSet
25 68.2998046875 m 0
 25 111.5 53.125 145.924804688 100.599609375 145.924804688 c 0
 148.07421875 145.924804688 176.19921875 111.5 176.19921875 68.2998046875 c 0
 176.19921875 16 159.794921875 -41.14453125 123.599609375 -76 c 0
 96.599609375 -102 68.599609375 -107 68.599609375 -107 c 5
 50.599609375 -53 l 1
 92.599609375 -43 98.599609375 -30.5361328125 98.599609375 -21 c 0
 98.599609375 -13 92.599609375 -10 82.599609375 -10 c 0
 53.125 -10 25 25.099609375 25 68.2998046875 c 0
EndSplineSet
Validated: 524289
EndChar

StartChar: quotedblbase
Encoding: 8222 8222 63
Width: 391
Flags: HW
LayerCount: 2
Fore
SplineSet
25 68.2998046875 m 0
 25 111.5 53.125 145.924804688 100.599609375 145.924804688 c 0
 148.07421875 145.924804688 176.19921875 111.5 176.19921875 68.2998046875 c 0
 176.19921875 16 159.794921875 -41.14453125 123.599609375 -76 c 0
 96.599609375 -102 68.599609375 -107 68.599609375 -107 c 1
 50.599609375 -53 l 1
 92.599609375 -43 98.599609375 -30.5361328125 98.599609375 -21 c 0
 98.599609375 -13 92.599609375 -10 82.599609375 -10 c 0
 53.125 -10 25 25.099609375 25 68.2998046875 c 0
215 68.2998046875 m 0
 215 111.5 243.125 145.924804688 290.599609375 145.924804688 c 0
 338.07421875 145.924804688 366.19921875 111.5 366.19921875 68.2998046875 c 0
 366.19921875 16 349.794921875 -41.14453125 313.599609375 -76 c 0
 286.599609375 -102 258.599609375 -107 258.599609375 -107 c 1
 240.599609375 -53 l 1
 282.599609375 -43 288.599609375 -30.5361328125 288.599609375 -21 c 0
 288.599609375 -13 282.599609375 -10 272.599609375 -10 c 0
 243.125 -10 215 25.099609375 215 68.2998046875 c 0
EndSplineSet
Validated: 524289
EndChar

StartChar: Euro
Encoding: 8364 8364 64
Width: 699
Flags: HW
LayerCount: 2
Fore
SplineSet
20 189 m 1
 20 303 l 1
 344 303 l 5
 334 189 l 5
 20 189 l 1
20 369 m 1
 20 483 l 1
 359 483 l 1
 349 369 l 1
 20 369 l 1
65 338 m 0
 65 530 190 683 381 683 c 0
 534.005859375 683 621.790039062 602.546875 669.48046875 485.109375 c 1
 557.752929688 435.319335938 l 1
 529.336914062 516.547851562 482.254882812 569.049804688 381 569.049804688 c 0
 263.299804688 569.049804688 188.799804688 471.950195312 188.799804688 337.549804688 c 0
 188.799804688 203.150390625 263.299804688 103.950195312 381 103.950195312 c 0
 491.078125 103.950195312 540.767578125 167.34375 564.297851562 261.434570312 c 1
 679.134765625 217.366210938 l 1
 637.6015625 84.7109375 545.407226562 -10 381 -10 c 0
 190 -10 65 146 65 338 c 0
EndSplineSet
Validated: 524293
EndChar

StartChar: hyphen
Encoding: 45 45 65
Width: 339
Flags: HW
LayerCount: 2
Fore
SplineSet
30 189 m 5
 30 303 l 5
 309 303 l 5
 309 189 l 5
 30 189 l 5
EndSplineSet
Validated: 1
EndChar

StartChar: yen
Encoding: 165 165 66
Width: 621
Flags: HW
LayerCount: 2
Fore
SplineSet
146 69 m 1
 146 183 l 1
 475 183 l 1
 475 69 l 1
 146 69 l 1
146 249 m 1
 146 363 l 1
 475 363 l 1
 475 249 l 1
 146 249 l 1
372.825195312 383 m 5
 372.825195312 0 l 1
 249.825195312 0 l 0
 249.825195312 383 l 5
 372.825195312 383 l 5
367.573242188 339.98046875 m 5
 265 375.776367188 l 5
 474.009765625 673 l 1
 607.650390625 673 l 1
 367.573242188 339.98046875 l 5
255.077148438 339.98046875 m 5
 15 673 l 1
 158.640625 673 l 1
 357.650390625 375.776367188 l 5
 255.077148438 339.98046875 l 5
EndSplineSet
Validated: 524293
EndChar

StartChar: sterling
Encoding: 163 163 67
Width: 580
Flags: HW
LayerCount: 2
Fore
SplineSet
34 275 m 1
 34 389 l 1
 132 379 l 5
 443 389 l 1
 443 275 l 1
 204 285 l 1
 34 275 l 1
135 0 m 1
 135 84 l 1
 135 84 169 134 237 134 c 0
 308 134 370 94 413 94 c 0
 438.587890625 94 445 110 445 128 c 0
 445 154.661132812 434 174 434 174 c 1
 524 184 l 1
 524 184 547.819335938 152.141601562 547.819335938 99 c 0
 547.819335938 31 512.448242188 -20 422 -20 c 0
 364 -20 281 20 237 20 c 0
 168 20 135 0 135 0 c 1
127 289 m 0
 89.708984375 333.749023438 42.48046875 406 42.48046875 488 c 0
 42.48046875 590 127.48046875 683 268.48046875 683 c 0
 381.486328125 683 465.280273438 628.905273438 513.140625 531.551757812 c 1
 401.5 481.56640625 l 1
 372.977539062 542.745117188 329.735351562 569.049804688 268.48046875 569.049804688 c 0
 200.780273438 569.049804688 166.280273438 531.950195312 166.280273438 487.549804688 c 0
 166.280273438 443.150390625 186 402 215 352 c 0
 246.671875 297.393554688 294.48046875 212.950195312 294.48046875 140.950195312 c 0
 294.48046875 38.9501953125 219.48046875 -10 128.48046875 -10 c 0
 65.474609375 -10 44 0 25 19 c 1
 34 137 l 1
 62 115 87.2255859375 103.950195312 118.48046875 103.950195312 c 0
 166.180664062 103.950195312 174 134.599609375 174 159 c 0
 174 193.399414062 162 247 127 289 c 0
EndSplineSet
Validated: 524293
EndChar

StartChar: endash
Encoding: 8211 8211 69
Width: 500
Flags: HW
LayerCount: 2
Fore
SplineSet
30 299 m 1
 30 413 l 1
 470 413 l 1
 470 299 l 1
 30 299 l 1
EndSplineSet
Validated: 1
EndChar

StartChar: emdash
Encoding: 8212 8212 70
Width: 1000
Flags: HW
LayerCount: 2
Fore
SplineSet
30 299 m 1
 30 413 l 1
 970 413 l 1
 970 299 l 1
 30 299 l 1
EndSplineSet
Validated: 1
EndChar

StartChar: paragraph
Encoding: 182 182 71
Width: 737
Flags: HW
LayerCount: 2
Fore
SplineSet
508 653 m 1
 637 653 l 1
 637 -121 l 1
 508 -121 l 1
 508 653 l 1
707 673 m 1
 707 559 l 1
 396 559 l 1
 396 673 l 1
 707 673 l 1
318 559 m 1
 296 559 l 2
 203 559 154 550 154 457 c 0
 154 364 202 353 299 353 c 2
 318 351 l 1
 318 559 l 1
318 -121 m 1
 318 239 l 1
 270 239 l 2
 124 239 25 324 25 459 c 0
 25 593 95 673 261 673 c 2
 447 673 l 1
 447 -121 l 1
 318 -121 l 1
EndSplineSet
Validated: 5
EndChar

StartChar: quotesingle
Encoding: 39 39 72
Width: 211
Flags: HW
LayerCount: 2
Fore
SplineSet
167.099609375 673 m 1
 157.099609375 410 l 1
 54.099609375 410 l 1
 44.099609375 673 l 1
 167.099609375 673 l 1
EndSplineSet
Validated: 524289
EndChar

StartChar: quotedbl
Encoding: 34 34 73
Width: 391
Flags: HW
LayerCount: 2
Fore
SplineSet
347.099609375 673 m 1
 337.099609375 410 l 1
 234.099609375 410 l 1
 224.099609375 673 l 1
 347.099609375 673 l 1
167.099609375 673 m 1
 157.099609375 410 l 1
 54.099609375 410 l 1
 44.099609375 673 l 1
 167.099609375 673 l 1
EndSplineSet
Validated: 524289
EndChar

StartChar: parenright
Encoding: 41 41 74
Width: 316
Flags: HW
LayerCount: 2
Fore
SplineSet
15 -156.049804688 m 0
 127.700195312 -76.0498046875 167.200195312 83.150390625 167.200195312 217.549804688 c 0
 167.200195312 351.950195312 127.700195312 509.049804688 15 589.049804688 c 0
 105 673 l 0
 201 593 291 410 291 218 c 0
 291 26 201 -160 105 -240 c 0
 15 -156.049804688 l 0
EndSplineSet
Validated: 524289
EndChar

StartChar: parenleft
Encoding: 40 40 75
Width: 316
Flags: HW
LayerCount: 2
Fore
SplineSet
301 -156.049804688 m 0
 211 -240 l 0
 115 -160 25 26 25 218 c 0
 25 410 115 593 211 673 c 0
 301 589.049804688 l 0
 188.299804688 509.049804688 148.799804688 351.950195312 148.799804688 217.549804688 c 0
 148.799804688 83.150390625 188.299804688 -76.0498046875 301 -156.049804688 c 0
EndSplineSet
Validated: 524289
EndChar

StartChar: o
Encoding: 111 111 76
Width: 520
VWidth: 699
Flags: HW
LayerCount: 2
Fore
SplineSet
141.66015625 236.28515625 m 4
 141.66015625 162.205078125 183.809570312 102.764648438 260.200195312 102.764648438 c 4
 336.58984375 102.764648438 378.740234375 162.205078125 378.740234375 236.28515625 c 4
 378.740234375 310.365234375 336.58984375 368.334960938 260.200195312 368.334960938 c 4
 183.809570312 368.334960938 141.66015625 310.365234375 141.66015625 236.28515625 c 4
25 236.599609375 m 4
 25 371 112.5 478.099609375 260.200195312 478.099609375 c 4
 407.900390625 478.099609375 495.400390625 371 495.400390625 236.599609375 c 4
 495.400390625 102.200195312 407.900390625 -7 260.200195312 -7 c 4
 112.5 -7 25 102.200195312 25 236.599609375 c 4
EndSplineSet
EndChar

StartChar: d
Encoding: 100 100 77
Width: 522
VWidth: 699
Flags: HW
LayerCount: 2
Fore
SplineSet
369.900390625 673 m 5
 492.900390625 673 l 1
 492.900390625 0 l 0
 369.900390625 0 l 1
 369.900390625 673 l 5
368.740234375 236.28515625 m 4
 368.740234375 330.365234375 319.590820312 378.334960938 255.200195312 378.334960938 c 4
 188.810546875 378.334960938 146.66015625 330.365234375 146.66015625 236.28515625 c 4
 146.66015625 142.205078125 188.810546875 92.7646484375 255.200195312 92.7646484375 c 4
 319.590820312 92.7646484375 368.740234375 142.205078125 368.740234375 236.28515625 c 4
435.400390625 236.599609375 m 4
 435.400390625 102.200195312 377.900390625 -7 230.200195312 -7 c 4
 92.5 -7 25 102.200195312 25 236.599609375 c 4
 25 371 92.5 478.099609375 230.200195312 478.099609375 c 4
 377.900390625 478.099609375 435.400390625 371 435.400390625 236.599609375 c 4
EndSplineSet
EndChar

StartChar: f
Encoding: 102 102 78
Width: 339
Flags: HW
LayerCount: 2
Fore
SplineSet
30 356 m 1
 30 470 l 1
 309 470 l 1
 309 356 l 1
 30 356 l 1
414 578 m 1
 328.508789062 542.614257812 l 1
 314 577 303.674804688 592 265.145507812 592 c 0
 214.145507812 592 203.145507812 559 203.145507812 494 c 2
 203.145507812 1 l 1
 80.1455078125 1 l 1
 80.1455078125 434 l 2
 80.1455078125 556 78.1455078125 693 252.145507812 693 c 0
 332.266601562 693 386 659 414 578 c 1
EndSplineSet
EndChar

StartChar: j
Encoding: 106 106 79
Width: 210
VWidth: 699
Flags: HW
LayerCount: 2
Fore
SplineSet
-140.155273438 -130.900390625 m 1
 -91.400390625 -56 l 1
 -77.6455078125 -67.099609375 -59.830078125 -79.900390625 -21.30078125 -79.900390625 c 0
 29.69921875 -79.900390625 47.599609375 -46.900390625 47.599609375 18.099609375 c 2
 47.599609375 471.099609375 l 1
 163.69921875 471.099609375 l 1
 163.69921875 38.099609375 l 2
 163.69921875 -52 155.69921875 -180.900390625 -8.30078125 -180.900390625 c 0
 -58.421875 -180.900390625 -108.400390625 -166 -140.155273438 -130.900390625 c 1
30 598.299804688 m 0
 30 641.5 58.125 675.924804688 105.599609375 675.924804688 c 0
 153.07421875 675.924804688 181.19921875 641.5 181.19921875 598.299804688 c 0
 181.19921875 555.099609375 153.07421875 520 105.599609375 520 c 0
 58.125 520 30 555.099609375 30 598.299804688 c 0
EndSplineSet
EndChar

StartChar: k
Encoding: 107 107 80
Width: 470
VWidth: 699
Flags: HW
LayerCount: 2
Fore
SplineSet
290 317 m 1
 480 0 l 1
 337 0 l 0
 194 256 l 1
 290 317 l 1
472 476 m 1
 130 66 l 1
 130 196 l 0
 325.900390625 476 l 1
 472 476 l 1
153 673 m 5
 153 0 l 5
 30 0 l 4
 30 673 l 5
 153 673 l 5
EndSplineSet
Validated: 524293
EndChar

StartChar: l
Encoding: 108 108 81
Width: 183
VWidth: 699
Flags: HW
LayerCount: 2
Fore
SplineSet
153 673 m 5
 153 0 l 5
 30 0 l 4
 30 673 l 5
 153 673 l 5
EndSplineSet
EndChar

StartChar: m
Encoding: 109 109 82
Width: 758
VWidth: 699
Flags: HW
LayerCount: 2
Fore
SplineSet
414.16015625 256.28515625 m 0
 347.5 256.599609375 l 0
 347.5 391 405 478.099609375 552.700195312 478.099609375 c 0
 690.400390625 478.099609375 727.900390625 371 727.900390625 236.599609375 c 0
 728 0 l 1
 607 0 l 17
 606.240234375 236.28515625 l 0
 606.240234375 330.365234375 594.08984375 378.334960938 527.700195312 378.334960938 c 0
 463.309570312 378.334960938 414.16015625 350.365234375 414.16015625 256.28515625 c 0
153 471.099609375 m 1
 153 0 l 1
 30 0 l 0
 30 471.099609375 l 1
 153 471.099609375 l 1
134.16015625 256.28515625 m 0
 67.5 256.599609375 l 0
 67.5 391 125 478.099609375 272.700195312 478.099609375 c 0
 410.400390625 478.099609375 447.900390625 371 447.900390625 236.599609375 c 0
 448 0 l 1
 327 0 l 17
 326.240234375 236.28515625 l 0
 326.240234375 330.365234375 314.08984375 378.334960938 247.700195312 378.334960938 c 0
 183.309570312 378.334960938 134.16015625 350.365234375 134.16015625 256.28515625 c 0
EndSplineSet
EndChar

StartChar: n
Encoding: 110 110 83
Width: 498
VWidth: 699
Flags: HW
LayerCount: 2
Fore
SplineSet
153 471.099609375 m 1
 153 0 l 1
 30 0 l 0
 30 471.099609375 l 1
 153 471.099609375 l 1
134.16015625 256.28515625 m 0
 67.5 256.599609375 l 0
 67.5 391 135 478.099609375 282.700195312 478.099609375 c 0
 420.400390625 478.099609375 467.900390625 371 467.900390625 236.599609375 c 0
 468 0 l 5
 347 0 l 21
 346.240234375 236.28515625 l 0
 346.240234375 330.365234375 324.08984375 378.334960938 257.700195312 378.334960938 c 0
 193.309570312 378.334960938 134.16015625 350.365234375 134.16015625 256.28515625 c 0
EndSplineSet
EndChar

StartChar: p
Encoding: 112 112 84
Width: 522
VWidth: 699
Flags: HW
LayerCount: 2
Fore
SplineSet
154.16015625 236.28515625 m 0
 154.16015625 142.205078125 203.309570312 92.7646484375 267.700195312 92.7646484375 c 0
 334.08984375 92.7646484375 376.240234375 142.205078125 376.240234375 236.28515625 c 0
 376.240234375 330.365234375 334.08984375 378.334960938 267.700195312 378.334960938 c 0
 203.309570312 378.334960938 154.16015625 330.365234375 154.16015625 236.28515625 c 0
87.5 236.599609375 m 0
 87.5 371 145 478.099609375 292.700195312 478.099609375 c 0
 430.400390625 478.099609375 497.900390625 371 497.900390625 236.599609375 c 0
 497.900390625 102.200195312 430.400390625 -7 292.700195312 -7 c 0
 145 -7 87.5 102.200195312 87.5 236.599609375 c 0
153 471.099609375 m 1
 153 -161.900390625 l 1
 30 -161.900390625 l 0
 30 471.099609375 l 1
 153 471.099609375 l 1
EndSplineSet
EndChar

StartChar: q
Encoding: 113 113 85
Width: 522
VWidth: 699
Flags: HW
LayerCount: 2
Fore
SplineSet
368.740234375 236.28515625 m 0
 368.740234375 330.365234375 319.590820312 378.334960938 255.200195312 378.334960938 c 0
 188.810546875 378.334960938 146.66015625 330.365234375 146.66015625 236.28515625 c 0
 146.66015625 142.205078125 188.810546875 92.7646484375 255.200195312 92.7646484375 c 0
 319.590820312 92.7646484375 368.740234375 142.205078125 368.740234375 236.28515625 c 0
435.400390625 236.599609375 m 0
 435.400390625 102.200195312 377.900390625 -7 230.200195312 -7 c 0
 92.5 -7 25 102.200195312 25 236.599609375 c 0
 25 371 92.5 478.099609375 230.200195312 478.099609375 c 0
 377.900390625 478.099609375 435.400390625 371 435.400390625 236.599609375 c 0
369.900390625 471.099609375 m 1
 492.900390625 471.099609375 l 1
 492.900390625 -161.900390625 l 0
 369.900390625 -161.900390625 l 1
 369.900390625 471.099609375 l 1
EndSplineSet
EndChar

StartChar: s
Encoding: 115 115 86
Width: 438
VWidth: 699
Flags: HW
LayerCount: 2
Fore
SplineSet
212.936523438 189.5 m 0
 117.192382812 211.200195312 40.736328125 249.200195312 40.736328125 341.599609375 c 0
 40.736328125 413 93.236328125 478.099609375 212.936523438 478.099609375 c 0
 306.040039062 478.099609375 364.696289062 440.233398438 398.198242188 372.0859375 c 1
 300.049804688 327.096679688 l 1
 285.5 357 269.814453125 373.334960938 212.936523438 373.334960938 c 0
 164.545898438 373.334960938 157.396484375 351.365234375 157.396484375 340.28515625 c 0
 157.396484375 329.205078125 162.5 314 212.936523438 301.264648438 c 0
 335.442382812 270.33203125 413.13671875 233.065429688 413.13671875 133.665039062 c 0
 413.13671875 62.2646484375 360.63671875 -7 226.936523438 -7 c 0
 119.83203125 -7 58.3828125 35.3173828125 25 117.5234375 c 1
 133.208984375 152.375976562 l 1
 146.5 126 160.057617188 96.7646484375 230.936523438 96.7646484375 c 0
 263.326171875 96.7646484375 289.4765625 109.900390625 289.4765625 136.98046875 c 0
 289.4765625 158.059570312 272.5 176 212.936523438 189.5 c 0
EndSplineSet
EndChar

StartChar: t
Encoding: 116 116 87
Width: 449
Flags: HW
LayerCount: 2
Fore
SplineSet
30 458 m 1
 329 458 l 1
 329 344 l 1
 30 344 l 1
 30 458 l 1
419 229 m 1
 419 169 l 2
 419 26 332.728515625 -9 264.145507812 -9 c 4
 110.145507812 -9 100.145507812 128 100.145507812 250 c 2
 100.145507812 603 l 1
 223.145507812 603 l 1
 223.145507812 200 l 2
 223.145507812 135 232.145507812 102 268.145507812 102 c 0
 296.770507812 102 310 131 310 190 c 2
 310 230 l 1
 419 229 l 1
EndSplineSet
EndChar

StartChar: u
Encoding: 117 117 88
Width: 498
VWidth: 699
Flags: HW
LayerCount: 2
Fore
SplineSet
345 0 m 5
 345 471.099609375 l 5
 468 471.099609375 l 4
 468 0 l 5
 345 0 l 5
363.83984375 214.814453125 m 4
 430.5 214.5 l 4
 430.5 80.099609375 363 -7 215.299804688 -7 c 4
 77.599609375 -7 30.099609375 100.099609375 30.099609375 234.5 c 4
 30 471.099609375 l 5
 151 471.099609375 l 21
 151.759765625 234.814453125 l 4
 151.759765625 140.734375 173.91015625 92.7646484375 240.299804688 92.7646484375 c 4
 304.690429688 92.7646484375 363.83984375 120.734375 363.83984375 214.814453125 c 4
EndSplineSet
EndChar

StartChar: v
Encoding: 118 118 89
Width: 433
VWidth: 699
Flags: HW
LayerCount: 2
Fore
SplineSet
275.7109375 0 m 9
 160.963867188 0.0029296875 l 1
 -10 471.099609375 l 25
 123.548828125 471.099609375 l 0
 220.3046875 158.138671875 l 5
 314.110351562 471.099609375 l 0
 443.723632812 471.099609375 l 0
 275.7109375 0 l 9
EndSplineSet
Validated: 524289
EndChar

StartChar: w
Encoding: 119 119 90
Width: 609
VWidth: 699
Flags: HW
LayerCount: 2
Fore
SplineSet
490.8203125 0 m 9
 362.07421875 0.0029296875 l 1
 250.110351562 471.099609375 l 25
 363.658203125 471.099609375 l 0
 428.415039062 188.138671875 l 5
 490.220703125 471.099609375 l 0
 619.833984375 471.099609375 l 0
 490.8203125 0 l 9
250.7109375 0 m 9
 121.963867188 0.0029296875 l 1
 -10 471.099609375 l 25
 123.548828125 471.099609375 l 0
 188.3046875 188.138671875 l 5
 250.110351562 471.099609375 l 0
 359.723632812 471.099609375 l 0
 250.7109375 0 l 9
EndSplineSet
Validated: 524293
EndChar

StartChar: x
Encoding: 120 120 91
Width: 427
VWidth: 699
Flags: HW
LayerCount: 2
Fore
SplineSet
-10 0 m 1
 293.162109375 471.099609375 l 5
 423.7109375 471.099609375 l 5
 112.74609375 0.0029296875 l 1
 -10 0 l 1
437.7109375 0 m 5
 304.963867188 0.0029296875 l 5
 4 471.099609375 l 1
 134.548828125 471.099609375 l 1
 437.7109375 0 l 5
EndSplineSet
Validated: 524293
EndChar

StartChar: y
Encoding: 121 121 92
Width: 439
VWidth: 699
Flags: HW
LayerCount: 2
Fore
SplineSet
64.25390625 -154.002929688 m 1
 173.949594808 115 l 1
 204.747070312 166 l 1
 319.162109375 471.099609375 l 1
 449.7109375 471.099609375 l 1
 187 -154 l 1
 64.25390625 -154.002929688 l 1
269 95 m 1
 179 39 l 1
 -10 471.099609375 l 1
 120.548828125 471.099609375 l 1
 269 95 l 1
EndSplineSet
EndChar

StartChar: z
Encoding: 122 122 93
Width: 446
VWidth: 699
Flags: HW
LayerCount: 2
Fore
SplineSet
30 0 m 1
 30 99.7998046875 l 1
 416.299804688 99.7998046875 l 1
 416.299804688 0 l 1
 30 0 l 1
416.299804688 371.299804688 m 1
 170.099609375 99.7998046875 l 1
 30 99.7998046875 l 0
 276.200195312 371.299804688 l 1
 416.299804688 371.299804688 l 1
30 371.299804688 m 1
 30 471.099609375 l 1
 416.299804688 471.099609375 l 1
 416.299804688 371.299804688 l 1
 30 371.299804688 l 1
EndSplineSet
EndChar

StartChar: at
Encoding: 64 64 94
Width: 687
Flags: HW
LayerCount: 2
Fore
SplineSet
334.104492188 224.439453125 m 0xbf
 363.874041185 224.439453125 376.048828125 242.948242188 378.912109375 270.271484375 c 0
 381.776367188 297.59375 372.519532864 320.282226562 344.149414062 320.282226562 c 0
 312 320.282226562 301.745117188 301.798828125 298.881835938 274.4765625 c 0
 296.017578125 247.154296875 302 224.439453125 334.104492188 224.439453125 c 0xbf
311.287109375 138.189453125 m 0
 238.701666905 138.189453125 186.112993043 193.100213179 195.243164062 278.470703125 c 0
 203 351 246.67578125 405.083007812 329.26171875 405.083007812 c 0
 412 405.083007812 432.177734375 323.865234375 432.177734375 255.462890625 c 0
 432.177734375 181.265625 380 138.189453125 311.287109375 138.189453125 c 0
339.888671875 -72.5595703125 m 0
 137.64453125 -72.5595703125 18.005859375 63.5654296875 18.005859375 272.142578125 c 0
 18.005859375 480.719726562 168.200195312 616.844726562 349.333007812 616.844726562 c 0
 530.465820312 616.844726562 659.548828125 512.38671875 659.548828125 346.03125 c 0
 659.548828125 241.047851562 623.37890625 138.614257812 514.235351562 138.614257812 c 0
 402.365234375 138.614257812 358 174 395.854492188 402.967773438 c 1
 492.956054688 402.967773438 l 1
 464 256 482.899414062 227.766601562 508.95703125 227.766601562 c 0xdf
 530.595703125 227.766601562 553.28515625 252.91796875 553.28515625 324.392578125 c 0
 553.28515625 443.880859375 485.154296875 512.15625 350.388671875 512.15625 c 0
 215.623046875 512.15625 129.547851562 415.408203125 129.547851562 272.698242188 c 0
 129.547851562 129.987304688 194.01171875 33.740234375 343.611328125 33.740234375 c 0
 476.932617188 33.740234375 580 105 580 105 c 5
 634 22 l 5
 634 22 530.465820312 -72.5595703125 339.888671875 -72.5595703125 c 0
EndSplineSet
Validated: 524325
EndChar

StartChar: equal
Encoding: 61 61 95
Width: 339
Flags: HW
LayerCount: 2
Fore
SplineSet
30 189 m 5
 30 303 l 5
 309 303 l 5
 309 189 l 5
 30 189 l 5
30 379 m 5
 30 493 l 5
 309 493 l 5
 309 379 l 5
 30 379 l 5
EndSplineSet
Validated: 1
EndChar
